<?xml version="1.0" standalone="no"?>
<!DOCTYPE svg PUBLIC "-//W3C//DTD SVG 20010904//EN"
 "http://www.w3.org/TR/2001/REC-SVG-20010904/DTD/svg10.dtd">
<svg version="1.0" xmlns="http://www.w3.org/2000/svg"
 width="700.000000pt" height="700.000000pt" viewBox="0 0 700.000000 700.000000"
 preserveAspectRatio="xMidYMid meet">
<metadata>
Created by potrace 1.11, written by Peter Selinger 2001-2013
</metadata>
<g transform="translate(0.000000,700.000000) scale(0.100000,-0.100000)"
fill="#000000" stroke="none">
<path d="M880 4250 l0 -630 84 0 c46 0 91 3 100 6 14 5 16 50 16 404 0 341 -2
401 -16 428 -8 18 -14 40 -12 50 2 10 95 -135 227 -355 209 -348 225 -371 255
-377 80 -15 75 -22 281 326 120 201 192 333 195 356 3 21 10 44 15 52 7 10 12
-140 15 -435 l5 -450 70 -3 c39 -2 85 0 103 3 l32 6 -2 622 -3 622 -86 3 c-61
2 -89 -1 -96 -10 -6 -7 -124 -206 -262 -443 -138 -236 -252 -425 -253 -420 0
6 -2 21 -3 35 -1 14 -110 207 -243 430 l-241 405 -90 3 -91 3 0 -631z"/>
<path d="M2946 4828 c-12 -29 -139 -308 -280 -619 -141 -312 -256 -571 -256
-578 0 -13 162 -15 195 -2 13 5 41 57 85 157 l66 149 318 0 317 0 68 -155 68
-155 94 -3 c52 -1 100 2 108 7 11 7 -41 130 -267 628 l-281 618 -106 3 -105 3
-24 -53z m244 -434 c69 -156 126 -291 128 -299 3 -13 -33 -15 -247 -15 l-251
0 9 23 c5 12 57 130 115 262 59 132 106 251 105 265 -2 37 0 50 9 50 4 0 63
-129 132 -286z"/>
<path d="M3902 4253 l3 -628 75 -3 c41 -2 90 0 108 3 l32 6 0 184 0 185 160 2
c88 1 167 2 177 2 10 1 65 -69 152 -191 l135 -193 96 0 c52 0 101 4 108 8 8 6
-28 65 -128 207 -77 109 -140 201 -140 204 0 3 24 19 54 34 117 61 186 161
208 299 30 195 -57 364 -227 444 -111 53 -204 64 -531 64 l-284 0 2 -627z
m660 443 c62 -23 132 -86 153 -138 12 -28 18 -69 18 -120 0 -92 -25 -151 -85
-202 -70 -60 -109 -69 -330 -74 l-198 -4 0 282 0 282 198 -4 c153 -4 207 -9
244 -22z"/>
<path d="M5210 4250 l0 -630 83 0 c138 0 127 -14 127 174 l0 161 94 94 c52 52
92 100 89 106 -19 52 45 -13 253 -255 l239 -279 105 0 c58 -1 110 3 116 7 7 4
-91 131 -268 346 l-280 338 34 37 c37 39 384 406 457 484 l45 47 -119 0 -120
-1 -335 -345 c-184 -191 -336 -341 -338 -334 -2 6 3 19 12 29 14 15 16 58 16
334 l0 317 -105 0 -105 0 0 -630z"/>
<path d="M4875 3364 c-238 -50 -430 -234 -490 -469 -19 -75 -19 -231 0 -313
49 -209 204 -375 418 -449 77 -26 93 -28 242 -28 149 0 166 2 248 29 197 64
340 204 409 396 31 88 33 314 4 400 -81 239 -254 388 -504 436 -93 18 -236 17
-327 -2z m261 -155 c177 -32 323 -168 369 -344 42 -162 -3 -341 -116 -460
-151 -160 -406 -191 -591 -74 -254 162 -294 535 -79 749 112 113 259 158 417
129z"/>
<path d="M1220 3290 l0 -80 215 0 215 0 0 -550 0 -550 105 0 105 0 0 550 0
550 215 0 215 0 0 74 c0 68 -2 74 -22 80 -13 3 -254 6 -535 6 l-513 0 0 -80z"/>
<path d="M2324 3353 c3 -10 97 -292 209 -628 l204 -610 108 -3 c60 -1 112 1
116 5 4 4 76 206 159 448 119 347 149 447 145 475 -3 19 -1 41 3 48 9 13 19
-15 255 -703 l92 -270 111 -3 112 -3 207 622 c167 499 205 623 194 630 -8 5
-51 9 -97 9 -82 0 -83 0 -95 -29 -7 -15 -84 -243 -172 -505 -88 -261 -163
-476 -166 -476 -11 0 -16 34 -9 55 5 13 -45 174 -148 482 l-154 463 -32 5
c-17 4 -62 5 -100 3 l-69 -3 -129 -370 c-227 -658 -220 -639 -230 -621 -5 9
-6 30 -3 46 5 23 -28 134 -145 484 -131 395 -154 455 -173 460 -12 3 -62 6
-110 6 -80 0 -88 -2 -83 -17z"/>
</g>
</svg>
